<svg width="18" height="18" viewBox="0 0 18 18" fill="none" xmlns="http://www.w3.org/2000/svg">
<path d="M9 18C13.9706 18 18 13.9706 18 9C18 4.02944 13.9706 0 9 0C4.02944 0 0 4.02944 0 9C0 13.9706 4.02944 18 9 18Z" fill="#6DA544"/>
<path d="M9.00116 3.52173L16.4359 8.99998L9.00116 14.4782L1.56641 8.99998L9.00116 3.52173Z" fill="#FFDA44"/>
<path d="M8.99963 12.1304C10.7286 12.1304 12.1301 10.7289 12.1301 8.99998C12.1301 7.2711 10.7286 5.86957 8.99963 5.86957C7.27071 5.86957 5.86914 7.2711 5.86914 8.99998C5.86914 10.7289 7.27071 12.1304 8.99963 12.1304Z" fill="#F0F0F0"/>
<path d="M7.4353 8.80432C6.89094 8.80432 6.3656 8.88711 5.87109 9.04075C5.893 10.7507 7.28532 12.1304 9.00053 12.1304C10.0611 12.1304 10.9978 11.6025 11.5641 10.7956C10.5953 9.58282 9.10463 8.80432 7.4353 8.80432Z" fill="#0052B4"/>
<path d="M12.0722 9.59975C12.1099 9.40555 12.1302 9.20519 12.1302 8.99999C12.1302 7.27107 10.7287 5.86957 8.99978 5.86957C7.70974 5.86957 6.6023 6.65007 6.12305 7.76445C6.54669 7.67667 6.9853 7.63044 7.43457 7.63044C9.25277 7.6304 10.8976 8.38619 12.0722 9.59975Z" fill="#0052B4"/>
</svg>
