<svg width="24" height="24" viewBox="0 0 24 24" fill="none" xmlns="http://www.w3.org/2000/svg">
<g clip-path="url(#clip0_1645_697)">
<path d="M15.0028 13.9516L9.96724 21.924L7.97415 21.924L10.4914 13.9516L5.14994 13.9516L3.48969 16.9413L1.99487 16.9413L2.99142 12.4568L1.99487 7.97235L3.48969 7.97235L5.15093 10.962L10.4924 10.962L7.97415 2.98962L9.96724 2.98962L15.0028 10.962L20.431 10.962C20.8274 10.962 21.2076 11.1195 21.488 11.3998C21.7683 11.6801 21.9258 12.0604 21.9258 12.4568C21.9258 12.8533 21.7683 13.2335 21.488 13.5138C21.2076 13.7941 20.8274 13.9516 20.431 13.9516L15.0028 13.9516Z" fill="url(#paint0_linear_1645_697)"/>
<path d="M15.0028 13.9516L9.96724 21.924L7.97415 21.924L10.4914 13.9516L5.14994 13.9516L3.48969 16.9413L1.99487 16.9413L2.99142 12.4568L1.99487 7.97235L3.48969 7.97235L5.15093 10.962L10.4924 10.962L7.97415 2.98962L9.96724 2.98962L15.0028 10.962L20.431 10.962C20.8274 10.962 21.2076 11.1195 21.488 11.3998C21.7683 11.6801 21.9258 12.0604 21.9258 12.4568C21.9258 12.8533 21.7683 13.2335 21.488 13.5138C21.2076 13.7941 20.8274 13.9516 20.431 13.9516L15.0028 13.9516Z" fill="#ED1650"/>
</g>
<defs>
<linearGradient id="paint0_linear_1645_697" x1="8.9351" y1="2.98962" x2="8.9351" y2="21.924" gradientUnits="userSpaceOnUse">
<stop stop-color="#0075FF"/>
<stop offset="1" stop-color="#20A1FF"/>
</linearGradient>
<clipPath id="clip0_1645_697">
<rect width="23.9171" height="23.9171" fill="white" transform="translate(23.918) rotate(90)"/>
</clipPath>
</defs>
</svg>
