<svg width="24" height="24" viewBox="0 0 24 24" fill="none" xmlns="http://www.w3.org/2000/svg">
<path fill-rule="evenodd" clip-rule="evenodd" d="M9.06752 13.5701L7.22852 11.1251L8.57852 10.6721C8.82352 10.5901 9.09252 10.6281 9.30452 10.7751L10.4765 11.5841L13.2955 10.3431L10.3505 6.61205L12.7485 6.10205L16.6215 9.13505L20.7515 7.48905C21.7625 7.08605 22.8785 7.76005 22.9915 8.84205V8.84205C23.0675 9.56005 22.6645 10.2441 21.9985 10.5261L14.5955 13.6601C14.4055 13.7401 14.2035 13.7841 13.9975 13.7891L9.74352 13.8951C9.47852 13.9041 9.22652 13.7821 9.06752 13.5701Z" stroke="white" stroke-width="1.5" stroke-linecap="round" stroke-linejoin="round"/>
<path opacity="0.5" d="M20.035 7.80002C18.59 4.96102 15.648 3.01202 12.245 3.01202C7.415 3.01202 3.5 6.92902 3.5 11.762C3.5 16.594 7.415 20.512 12.245 20.512C17.075 20.512 20.99 16.595 20.99 11.762C20.99 11.501 20.973 11.245 20.951 10.99" stroke="white" stroke-width="1.498" stroke-linecap="round" stroke-linejoin="round"/>
<path d="M3.51966 12.349C1.65566 13.716 0.646658 15.233 1.09666 16.293C1.73466 17.873 5.33466 17.908 9.13766 16.371" stroke="white" stroke-width="1.498" stroke-linecap="round" stroke-linejoin="round"/>
</svg>
