<svg width="106" height="32" viewBox="0 0 106 32" fill="none" xmlns="http://www.w3.org/2000/svg">
<g clip-path="url(#clip0_1645_986)">
<path d="M102.354 24.6333C100.393 24.6333 99.1096 25.4532 99.1096 26.7171C99.1096 27.9077 100.091 28.3549 101.675 28.6502L102.433 28.802C103.561 29.024 104.164 29.3968 104.164 29.9916C104.164 30.5863 103.561 31.0314 102.053 31.0314C100.695 31.0314 99.6355 30.5853 99.3338 30.3623L99.0331 31.4021C99.3338 31.5508 100.394 32 101.977 32C104.091 32 105.296 31.1801 105.296 29.9162C105.296 28.7245 104.242 28.1297 102.579 27.8323L101.828 27.6847C100.617 27.4627 100.239 27.2375 100.239 26.6428C100.239 26.0469 100.922 25.6008 102.279 25.6008C103.411 25.6008 104.243 25.8239 104.619 25.9705L104.844 25.0794C104.391 24.9328 103.561 24.6333 102.354 24.6333ZM34.2049 31.9257H35.3374L31.9389 25.0804C31.7923 24.8574 31.6414 24.7841 31.4141 24.7841H30.5823L27.0371 31.9257H28.1685L29.0737 30.0638H33.2977L34.2049 31.9257ZM48.1677 31.9257V29.3224C48.6936 29.6188 49.4511 29.7685 50.2819 29.7685C50.7344 29.7685 51.0351 29.7685 51.4143 29.6952L52.9208 31.9257H54.1308L52.4735 29.3968C53.5285 28.9496 54.2052 28.0575 54.2052 27.0166C54.2052 25.6773 53.077 24.7087 51.0361 24.7087H47.0384V31.9257H48.1677ZM76.2431 31.9257V26.048L81.2224 31.6262C81.3754 31.8524 81.5975 31.9257 81.9024 31.9257H82.578V24.7841H81.5242V30.4366L76.6181 25.0804C76.4673 24.8574 76.3175 24.7841 75.9424 24.7841H75.185V31.9257H76.2431ZM32.8451 29.0973H29.5231L31.1836 25.7495L32.8451 29.0973ZM50.3552 28.802C49.5233 28.802 48.6936 28.5789 48.1677 28.2795V25.6029H51.1126C52.5458 25.6029 53.0748 26.3464 53.0748 27.0176C53.0748 27.9821 52.3163 28.802 50.3552 28.802ZM59.0326 31.9257H64.3169V30.9581H60.1683V24.7841H59.0326V31.9257ZM40.3189 31.9257H41.4514V24.7841H40.3189V31.9257ZM88.2437 24.7841V31.9257H94.0527V30.8827H89.3751V28.6502H93.4472V27.6857H89.3751V25.7495H93.9029V24.7841H88.2437ZM68.4665 31.9257H69.6022V24.7841H68.4665V31.9257Z" fill="white"/>
<path d="M51.5713 16.8047H55.1037L49.6006 6.12374C49.3148 5.60121 49.028 5.39911 48.3693 5.39911H45.3362L39.5495 16.8037H43.0744L44.1028 14.7031H50.5865L51.5713 16.8047ZM80.5029 16.8047H83.9971L78.4908 6.12374C78.2061 5.60121 77.9203 5.39911 77.2669 5.39911H74.2264L68.4397 16.8037H71.9699L72.9973 14.7031H79.4809L80.5029 16.8047ZM92.9391 14.0151C93.0666 14.4183 93.5574 14.7031 94.0875 14.7031H97.4138L99.8785 7.98768L102.215 16.8037H105.332L102.748 6.69653C102.504 5.68289 101.93 5.39911 100.987 5.39911H97.74L95.4027 12.0747L93.5563 6.40752C93.3088 5.68289 92.8562 5.39911 92.1189 5.39911H88.4665L85.4706 16.8037H88.6312L90.927 7.98768L92.9391 14.0151ZM78.3336 12.3962H74.0203L76.1961 7.82641L78.3336 12.3962ZM49.4349 12.3962H45.1269L47.3016 7.82641L49.4349 12.3962ZM37.088 16.8047L38.3968 14.1764H30.6404V5.39911H27.3184V16.8037H37.088V16.8047ZM60.1521 16.8047H63.3467V8.02747L68.9347 7.6641V5.39911H54.5683V7.6641L60.1521 8.02747V16.8047Z" fill="white"/>
<path d="M1.49582 7.88461L7.6884 10.0993C9.31171 9.51608 11.0104 8.90977 12.5796 8.35059C7.99649 6.71703 2.53482 4.76618 0.769159 4.12323C0.341022 3.97034 0 3.79652 0 4.2447V6.00496C0 6.99871 0.533312 7.52753 1.49582 7.88461ZM0.00743662 12.2575C0.0308088 12.6827 0.213537 12.7382 0.672483 12.601C0.892394 12.5225 1.21642 12.402 1.63499 12.2575C1.73379 12.2198 1.84428 12.18 1.95477 12.1392H1.95902C2.65275 11.8921 3.5462 11.5737 4.55121 11.2177C2.91197 10.6302 1.39808 10.0941 0.567308 9.78833C0.200789 9.65535 0.00743662 9.75168 0.00743662 10.1726V11.8366V12.2575ZM15.7242 12.9633C17.3401 12.3863 18.5363 11.957 18.7541 11.8806C19.928 11.4585 20.1277 11.0481 19.6104 10.8606C19.6369 10.8711 19.6603 10.8795 19.6847 10.8868C19.6369 10.8617 19.5838 10.8449 19.5222 10.8208C19.3565 10.759 18.5947 10.4889 17.4739 10.0931C16.1885 10.5507 14.4069 11.1873 12.5806 11.8408L15.7242 12.9633ZM15.7125 7.23118L6.28288 3.92741C5.32356 3.57242 4.78706 3.04256 4.78706 2.04881V0.288546C4.78706 -0.162777 5.12702 0.0141918 5.55515 0.167076C8.69341 1.30638 18.6861 4.7955 19.5211 5.09603C19.6305 5.13373 19.723 5.17667 19.792 5.22274C20.0736 5.43322 19.7633 5.78506 18.753 6.14947C18.5639 6.21335 17.39 6.63535 15.7125 7.23118Z" fill="#E63358"/>
<path d="M19.6127 5.13104C20.1577 5.31953 19.9282 5.72373 18.7543 6.14992C18.136 6.36773 6.32665 10.5825 1.96029 12.1396V12.1386C1.84449 12.1805 1.73613 12.2192 1.63733 12.258C1.21769 12.4014 0.89473 12.5208 0.673756 12.6014C0.215873 12.7376 0.0331449 12.6821 0.00977263 12.258C0.00977263 12.5208 0.00233598 13.057 0.471905 13.2224L4.32089 14.6015C4.32089 14.6015 4.59498 14.6863 4.85314 14.6015C5.20584 14.479 19.396 9.40448 19.396 9.40448C20.0908 9.15421 20.1301 8.57932 20.1301 6.92272C20.129 5.37608 20.129 5.30906 19.6127 5.13104ZM12.5585 21.1536C12.5585 20.4247 12.634 19.7996 11.9785 20.0362L4.7299 22.6227V26.0857L11.8149 23.5725C12.5097 23.3243 12.5575 22.8405 12.5575 22.1096V21.1536H12.5585ZM8.14118 28.4438C8.14118 27.7129 8.2198 27.0909 7.56325 27.3213L4.73096 28.3391V31.8031L7.40071 30.8607C8.0955 30.6094 8.14224 30.1277 8.14224 29.3968V28.4438H8.14118ZM19.396 15.1387L4.72778 20.3808V16.8885C4.72778 16.8885 17.9936 12.1522 18.7543 11.8768C19.9282 11.4548 20.1301 11.0422 19.6127 10.859C20.1418 11.0475 20.1301 11.1092 20.1301 12.6548C20.129 14.3135 20.0908 14.8905 19.396 15.1387Z" fill="white"/>
</g>
<defs>
<clipPath id="clip0_1645_986">
<rect width="105.333" height="32" fill="white"/>
</clipPath>
</defs>
</svg>
