<svg width="16" height="17" viewBox="0 0 16 17" fill="none" xmlns="http://www.w3.org/2000/svg">
<path opacity="0.4" fill-rule="evenodd" clip-rule="evenodd" d="M8 15.5C11.866 15.5 15 12.366 15 8.5C15 4.63401 11.866 1.5 8 1.5C4.13401 1.5 1 4.63401 1 8.5C1 12.366 4.13401 15.5 8 15.5Z" stroke="#A87C47" stroke-width="1.5" stroke-linecap="round" stroke-linejoin="round"/>
<path d="M9.16602 10.8333H9.94379C11.2325 10.8333 12.2771 9.78865 12.2771 8.49999C12.2771 7.21133 11.2325 6.16666 9.94379 6.16666H9.16602" stroke="#A87C47" stroke-width="1.5" stroke-linecap="round" stroke-linejoin="round"/>
<path d="M6.83181 6.16666H6.05404C4.76537 6.16666 3.7207 7.21133 3.7207 8.49999C3.7207 9.78865 4.76537 10.8333 6.05404 10.8333H6.83181" stroke="#A87C47" stroke-width="1.5" stroke-linecap="round" stroke-linejoin="round"/>
<path d="M6.05469 8.5H9.94358" stroke="#A87C47" stroke-width="1.5" stroke-linecap="round" stroke-linejoin="round"/>
</svg>
